<svg width="100%" id="mmd-dark-4" xmlns="http://www.w3.org/2000/svg" xmlns:xlink="http://www.w3.org/1999/xlink" class="flowchart" viewBox="0 0 1017.484375 1166.75" role="graphics-document document" aria-roledescription="flowchart-v2" aria-describedby="chart-desc-mmd-dark-4" aria-labelledby="chart-title-mmd-dark-4"><title id="chart-title-mmd-dark-4">Recipe install flow</title><desc id="chart-desc-mmd-dark-4">Running mx add site with the astro recipe loads that recipe's manifest, resolves its options and expands its placeholders, optionally runs the recipe's init command to scaffold the framework app and create the declared directories, renders the template files into the project as the app source, the compose baseline and dev override, the dockerfiles and the service env file, writes Traefik routing labels for the chosen domain, and prints next steps ending in make dev, which brings the service up behind the router.</desc><style>#mmd-dark-4{font-family:ui-sans-serif,system-ui,-apple-system,"Segoe UI",Roboto,sans-serif;font-size:15px;fill:#e2e8f0;}@keyframes edge-animation-frame{from{stroke-dashoffset:0;}}@keyframes dash{to{stroke-dashoffset:0;}}#mmd-dark-4 .edge-animation-slow{stroke-dasharray:9,5!important;stroke-dashoffset:900;animation:dash 50s linear infinite;stroke-linecap:round;}#mmd-dark-4 .edge-animation-fast{stroke-dasharray:9,5!important;stroke-dashoffset:900;animation:dash 20s linear infinite;stroke-linecap:round;}#mmd-dark-4 .error-icon{fill:#1e293b;}#mmd-dark-4 .error-text{fill:#e1d6c4;stroke:#e1d6c4;}#mmd-dark-4 .edge-thickness-normal{stroke-width:1px;}#mmd-dark-4 .edge-thickness-thick{stroke-width:3.5px;}#mmd-dark-4 .edge-pattern-solid{stroke-dasharray:0;}#mmd-dark-4 .edge-thickness-invisible{stroke-width:0;fill:none;}#mmd-dark-4 .edge-pattern-dashed{stroke-dasharray:3;}#mmd-dark-4 .edge-pattern-dotted{stroke-dasharray:2;}#mmd-dark-4 .marker{fill:#94a3b8;stroke:#94a3b8;}#mmd-dark-4 .marker.cross{stroke:#94a3b8;}#mmd-dark-4 svg{font-family:ui-sans-serif,system-ui,-apple-system,"Segoe UI",Roboto,sans-serif;font-size:15px;}#mmd-dark-4 p{margin:0;}#mmd-dark-4 .label{font-family:ui-sans-serif,system-ui,-apple-system,"Segoe UI",Roboto,sans-serif;color:#e2e8f0;}#mmd-dark-4 .cluster-label text{fill:#e1d6c4;}#mmd-dark-4 .cluster-label span{color:#e1d6c4;}#mmd-dark-4 .cluster-label span p{background-color:transparent;}#mmd-dark-4 .label text,#mmd-dark-4 span{fill:#e2e8f0;color:#e2e8f0;}#mmd-dark-4 .node rect,#mmd-dark-4 .node circle,#mmd-dark-4 .node ellipse,#mmd-dark-4 .node polygon,#mmd-dark-4 .node path{fill:#1e293b;stroke:#94a3b8;stroke-width:1px;}#mmd-dark-4 .rough-node .label text,#mmd-dark-4 .node .label text,#mmd-dark-4 .image-shape .label,#mmd-dark-4 .icon-shape .label{text-anchor:middle;}#mmd-dark-4 .node .katex path{fill:#000;stroke:#000;stroke-width:1px;}#mmd-dark-4 .rough-node .label,#mmd-dark-4 .node .label,#mmd-dark-4 .image-shape .label,#mmd-dark-4 .icon-shape .label{text-align:center;}#mmd-dark-4 .node.clickable{cursor:pointer;}#mmd-dark-4 .root .anchor path{fill:#94a3b8!important;stroke-width:0;stroke:#94a3b8;}#mmd-dark-4 .arrowheadPath{fill:#f2eee8;}#mmd-dark-4 .edgePath .path{stroke:#94a3b8;stroke-width:1px;}#mmd-dark-4 .flowchart-link{stroke:#94a3b8;fill:none;}#mmd-dark-4 .edgeLabel{background-color:#0d1117;text-align:center;}#mmd-dark-4 .edgeLabel p{background-color:#0d1117;}#mmd-dark-4 .edgeLabel rect{opacity:0.5;background-color:#0d1117;fill:#0d1117;}#mmd-dark-4 .labelBkg{background-color:rgba(13, 17, 23, 0.5);}#mmd-dark-4 .cluster rect{fill:#161b22;stroke:#475569;stroke-width:1px;}#mmd-dark-4 .cluster text{fill:#e1d6c4;}#mmd-dark-4 .cluster span{color:#e1d6c4;}#mmd-dark-4 .node .collapsed-indicator{fill:#475569;stroke:none;opacity:0.6;}#mmd-dark-4 .node .collapsed-separator{stroke:#475569;stroke-width:0.75px;}#mmd-dark-4 div.mermaidTooltip{position:absolute;text-align:center;max-width:200px;padding:2px;font-family:ui-sans-serif,system-ui,-apple-system,"Segoe UI",Roboto,sans-serif;font-size:12px;background:#1e293b;border:1px solid hsl(217.2413793103, 0%, 7.4509803922%);border-radius:2px;pointer-events:none;z-index:100;}#mmd-dark-4 .flowchartTitleText{text-anchor:middle;font-size:18px;fill:#e2e8f0;}#mmd-dark-4 rect.text{fill:none;stroke-width:0;}#mmd-dark-4 .icon-shape,#mmd-dark-4 .image-shape{background-color:#0d1117;text-align:center;}#mmd-dark-4 .icon-shape p,#mmd-dark-4 .image-shape p{background-color:#0d1117;padding:2px;}#mmd-dark-4 .icon-shape .label rect,#mmd-dark-4 .image-shape .label rect{opacity:0.5;background-color:#0d1117;fill:#0d1117;}#mmd-dark-4 .label-icon{display:inline-block;height:1em;overflow:visible;vertical-align:-0.125em;}#mmd-dark-4 .node .label-icon path{fill:currentColor;stroke:revert;stroke-width:revert;}#mmd-dark-4 .node .neo-node{stroke:#94a3b8;}#mmd-dark-4 [data-look="neo"].node rect,#mmd-dark-4 [data-look="neo"].cluster rect,#mmd-dark-4 [data-look="neo"].node polygon{stroke:url(#mmd-dark-4-gradient);filter:drop-shadow( 1px 2px 2px rgba(185,185,185,1));}#mmd-dark-4 [data-look="neo"].swimlane.cluster rect{filter:none;}#mmd-dark-4 [data-look="neo"].node path{stroke:url(#mmd-dark-4-gradient);stroke-width:1px;}#mmd-dark-4 [data-look="neo"].node .outer-path{filter:drop-shadow( 1px 2px 2px rgba(185,185,185,1));}#mmd-dark-4 [data-look="neo"].node .neo-line path{stroke:#94a3b8;filter:none;}#mmd-dark-4 [data-look="neo"].node circle{stroke:url(#mmd-dark-4-gradient);filter:drop-shadow( 1px 2px 2px rgba(185,185,185,1));}#mmd-dark-4 [data-look="neo"].node circle .state-start{fill:#000000;}#mmd-dark-4 [data-look="neo"].icon-shape .icon{fill:url(#mmd-dark-4-gradient);filter:drop-shadow( 1px 2px 2px rgba(185,185,185,1));}#mmd-dark-4 [data-look="neo"].icon-shape .icon-neo path{stroke:url(#mmd-dark-4-gradient);filter:drop-shadow( 1px 2px 2px rgba(185,185,185,1));}#mmd-dark-4 :root{--mermaid-font-family:arial,sans-serif;}#mmd-dark-4 .cmdNode&gt;*{fill:rgb(224, 231, 255)!important;stroke:rgb(79, 70, 229)!important;stroke-width:1.5px!important;color:rgb(30, 27, 75)!important;}#mmd-dark-4 .cmdNode span{fill:rgb(224, 231, 255)!important;stroke:rgb(79, 70, 229)!important;stroke-width:1.5px!important;color:rgb(30, 27, 75)!important;}#mmd-dark-4 .cmdNode tspan{fill:rgb(30, 27, 75)!important;}#mmd-dark-4 .step&gt;*{fill:rgb(248, 250, 252)!important;stroke:rgb(100, 116, 139)!important;color:rgb(15, 23, 42)!important;}#mmd-dark-4 .step span{fill:rgb(248, 250, 252)!important;stroke:rgb(100, 116, 139)!important;color:rgb(15, 23, 42)!important;}#mmd-dark-4 .step tspan{fill:rgb(15, 23, 42)!important;}#mmd-dark-4 .file&gt;*{fill:rgb(254, 249, 195)!important;stroke:rgb(202, 138, 4)!important;color:rgb(66, 32, 6)!important;}#mmd-dark-4 .file span{fill:rgb(254, 249, 195)!important;stroke:rgb(202, 138, 4)!important;color:rgb(66, 32, 6)!important;}#mmd-dark-4 .file tspan{fill:rgb(66, 32, 6)!important;}#mmd-dark-4 .done&gt;*{fill:rgb(220, 252, 231)!important;stroke:rgb(22, 163, 74)!important;color:rgb(20, 83, 45)!important;}#mmd-dark-4 .done span{fill:rgb(220, 252, 231)!important;stroke:rgb(22, 163, 74)!important;color:rgb(20, 83, 45)!important;}#mmd-dark-4 .done tspan{fill:rgb(20, 83, 45)!important;}</style><g><marker id="mmd-dark-4_flowchart-v2-pointEnd" class="marker flowchart-v2" viewBox="0 0 10 10" refX="5" refY="5" markerUnits="userSpaceOnUse" markerWidth="8" markerHeight="8" orient="auto"><path d="M 0 0 L 10 5 L 0 10 z" class="arrowMarkerPath" style="stroke-width: 1; stroke-dasharray: 1, 0;"/></marker><marker id="mmd-dark-4_flowchart-v2-pointStart" class="marker flowchart-v2" viewBox="0 0 10 10" refX="4.5" refY="5" markerUnits="userSpaceOnUse" markerWidth="8" markerHeight="8" orient="auto"><path d="M 0 5 L 10 10 L 10 0 z" class="arrowMarkerPath" style="stroke-width: 1; stroke-dasharray: 1, 0;"/></marker><marker id="mmd-dark-4_flowchart-v2-pointEnd-margin" class="marker flowchart-v2" viewBox="0 0 11.5 14" refX="11.5" refY="7" markerUnits="userSpaceOnUse" markerWidth="10.5" markerHeight="14" orient="auto"><path d="M 0 0 L 11.5 7 L 0 14 z" class="arrowMarkerPath" style="stroke-width: 0; stroke-dasharray: 1, 0;"/></marker><marker id="mmd-dark-4_flowchart-v2-pointStart-margin" class="marker flowchart-v2" viewBox="0 0 11.5 14" refX="1" refY="7" markerUnits="userSpaceOnUse" markerWidth="11.5" markerHeight="14" orient="auto"><polygon points="0,7 11.5,14 11.5,0" class="arrowMarkerPath" style="stroke-width: 0; stroke-dasharray: 1, 0;"/></marker><marker id="mmd-dark-4_flowchart-v2-circleEnd" class="marker flowchart-v2" viewBox="0 0 10 10" refX="11" refY="5" markerUnits="userSpaceOnUse" markerWidth="11" markerHeight="11" orient="auto"><circle cx="5" cy="5" r="5" class="arrowMarkerPath" style="stroke-width: 1; stroke-dasharray: 1, 0;"/></marker><marker id="mmd-dark-4_flowchart-v2-circleStart" class="marker flowchart-v2" viewBox="0 0 10 10" refX="-1" refY="5" markerUnits="userSpaceOnUse" markerWidth="11" markerHeight="11" orient="auto"><circle cx="5" cy="5" r="5" class="arrowMarkerPath" style="stroke-width: 1; stroke-dasharray: 1, 0;"/></marker><marker id="mmd-dark-4_flowchart-v2-circleEnd-margin" class="marker flowchart-v2" viewBox="0 0 10 10" refY="5" refX="12.25" markerUnits="userSpaceOnUse" markerWidth="14" markerHeight="14" orient="auto"><circle cx="5" cy="5" r="5" class="arrowMarkerPath" style="stroke-width: 0; stroke-dasharray: 1, 0;"/></marker><marker id="mmd-dark-4_flowchart-v2-circleStart-margin" class="marker flowchart-v2" viewBox="0 0 10 10" refX="-2" refY="5" markerUnits="userSpaceOnUse" markerWidth="14" markerHeight="14" orient="auto"><circle cx="5" cy="5" r="5" class="arrowMarkerPath" style="stroke-width: 0; stroke-dasharray: 1, 0;"/></marker><marker id="mmd-dark-4_flowchart-v2-crossEnd" class="marker cross flowchart-v2" viewBox="0 0 11 11" refX="12" refY="5.2" markerUnits="userSpaceOnUse" markerWidth="11" markerHeight="11" orient="auto"><path d="M 1,1 l 9,9 M 10,1 l -9,9" class="arrowMarkerPath" style="stroke-width: 2; stroke-dasharray: 1, 0;"/></marker><marker id="mmd-dark-4_flowchart-v2-crossStart" class="marker cross flowchart-v2" viewBox="0 0 11 11" refX="-1" refY="5.2" markerUnits="userSpaceOnUse" markerWidth="11" markerHeight="11" orient="auto"><path d="M 1,1 l 9,9 M 10,1 l -9,9" class="arrowMarkerPath" style="stroke-width: 2; stroke-dasharray: 1, 0;"/></marker><marker id="mmd-dark-4_flowchart-v2-crossEnd-margin" class="marker cross flowchart-v2" viewBox="0 0 15 15" refX="17.7" refY="7.5" markerUnits="userSpaceOnUse" markerWidth="12" markerHeight="12" orient="auto"><path d="M 1,1 L 14,14 M 1,14 L 14,1" class="arrowMarkerPath" style="stroke-width: 2.5;"/></marker><marker id="mmd-dark-4_flowchart-v2-crossStart-margin" class="marker cross flowchart-v2" viewBox="0 0 15 15" refX="-3.5" refY="7.5" markerUnits="userSpaceOnUse" markerWidth="12" markerHeight="12" orient="auto"><path d="M 1,1 L 14,14 M 1,14 L 14,1" class="arrowMarkerPath" style="stroke-width: 2.5; stroke-dasharray: 1, 0;"/></marker><g class="root"><g class="clusters"/><g class="edgePaths"><path d="M508.74,105.5L508.74,109.67C508.74,113.83,508.74,122.17,508.81,129.92C508.88,137.67,509.02,144.83,509.09,148.42L509.16,152" id="mmd-dark-4-L_cmd_manifest_0" class="edge-thickness-normal edge-pattern-solid edge-thickness-normal edge-pattern-solid flowchart-link" style=";" data-edge="true" data-et="edge" data-id="mmd-dark-4_L_cmd_manifest_0" data-points="W3sieCI6NTA4Ljc0MjE4NzUsInkiOjEwNS41fSx7IngiOjUwOC43NDIxODc1LCJ5IjoxMzAuNX0seyJ4Ijo1MDkuMjQyMTg3NSwieSI6MTU2fV0=" data-look="classic" marker-end="url(#mmd-dark-4_flowchart-v2-pointEnd)"/><path d="M509.24,239L509.16,243.08C509.08,247.17,508.91,255.33,508.83,262.92C508.74,270.5,508.74,277.5,508.74,281L508.74,284.5" id="mmd-dark-4-L_manifest_resolve_0" class="edge-thickness-normal edge-pattern-solid edge-thickness-normal edge-pattern-solid flowchart-link" style=";" data-edge="true" data-et="edge" data-id="mmd-dark-4_L_manifest_resolve_0" data-points="W3sieCI6NTA5LjI0MjE4NzUsInkiOjIzOX0seyJ4Ijo1MDguNzQyMTg3NSwieSI6MjYzLjV9LHsieCI6NTA4Ljc0MjE4NzUsInkiOjI4OC41fV0=" data-look="classic" marker-end="url(#mmd-dark-4_flowchart-v2-pointEnd)"/><path d="M508.74,409.25L508.74,413.42C508.74,417.58,508.74,425.92,508.74,433.58C508.74,441.25,508.74,448.25,508.74,451.75L508.74,455.25" id="mmd-dark-4-L_resolve_scaffold_0" class="edge-thickness-normal edge-pattern-solid edge-thickness-normal edge-pattern-solid flowchart-link" style=";" data-edge="true" data-et="edge" data-id="mmd-dark-4_L_resolve_scaffold_0" data-points="W3sieCI6NTA4Ljc0MjE4NzUsInkiOjQwOS4yNX0seyJ4Ijo1MDguNzQyMTg3NSwieSI6NDM0LjI1fSx7IngiOjUwOC43NDIxODc1LCJ5Ijo0NTkuMjV9XQ==" data-look="classic" marker-end="url(#mmd-dark-4_flowchart-v2-pointEnd)"/><path d="M508.74,946L508.74,950.17C508.74,954.33,508.74,962.67,508.74,970.33C508.74,978,508.74,985,508.74,988.5L508.74,992" id="mmd-dark-4-L_labels_dev_0" class="edge-thickness-normal edge-pattern-solid edge-thickness-normal edge-pattern-solid flowchart-link" style=";" data-edge="true" data-et="edge" data-id="mmd-dark-4_L_labels_dev_0" data-points="W3sieCI6NTA4Ljc0MjE4NzUsInkiOjk0Nn0seyJ4Ijo1MDguNzQyMTg3NSwieSI6OTcxfSx7IngiOjUwOC43NDIxODc1LCJ5Ijo5OTZ9XQ==" data-look="classic" marker-end="url(#mmd-dark-4_flowchart-v2-pointEnd)"/><path d="M508.74,1071.25L508.74,1075.42C508.74,1079.58,508.74,1087.92,508.81,1095.67C508.88,1103.42,509.02,1110.58,509.09,1114.17L509.16,1117.75" id="mmd-dark-4-L_dev_live_0" class="edge-thickness-normal edge-pattern-solid edge-thickness-normal edge-pattern-solid flowchart-link" style=";" data-edge="true" data-et="edge" data-id="mmd-dark-4_L_dev_live_0" data-points="W3sieCI6NTA4Ljc0MjE4NzUsInkiOjEwNzEuMjV9LHsieCI6NTA4Ljc0MjE4NzUsInkiOjEwOTYuMjV9LHsieCI6NTA5LjI0MjE4NzUsInkiOjExMjEuNzUwMDAwMDAwMDAwMn1d" data-look="classic" marker-end="url(#mmd-dark-4_flowchart-v2-pointEnd)"/><path d="M508.74,557.25L508.74,561.42C508.74,565.58,508.74,573.92,508.74,581.58C508.74,589.25,508.74,596.25,508.74,599.75L508.74,603.25" id="mmd-dark-4-L_scaffold_landed_0" class="edge-thickness-normal edge-pattern-solid edge-thickness-normal edge-pattern-solid flowchart-link" style=";" data-edge="true" data-et="edge" data-id="mmd-dark-4_L_scaffold_landed_0" data-points="W3sieCI6NTA4Ljc0MjE4NzUsInkiOjU1Ny4yNX0seyJ4Ijo1MDguNzQyMTg3NSwieSI6NTgyLjI1fSx7IngiOjUwOC43NDIxODc1LCJ5Ijo2MDcuMjV9XQ==" data-look="classic" marker-end="url(#mmd-dark-4_flowchart-v2-pointEnd)"/><path d="M508.74,775.25L508.74,779.42C508.74,783.58,508.74,791.92,508.74,799.58C508.74,807.25,508.74,814.25,508.74,817.75L508.74,821.25" id="mmd-dark-4-L_landed_labels_0" class="edge-thickness-normal edge-pattern-solid edge-thickness-normal edge-pattern-solid flowchart-link" style=";" data-edge="true" data-et="edge" data-id="mmd-dark-4_L_landed_labels_0" data-points="W3sieCI6NTA4Ljc0MjE4NzUsInkiOjc3NS4yNX0seyJ4Ijo1MDguNzQyMTg3NSwieSI6ODAwLjI1fSx7IngiOjUwOC43NDIxODc1LCJ5Ijo4MjUuMjV9XQ==" data-look="classic" marker-end="url(#mmd-dark-4_flowchart-v2-pointEnd)"/></g><g class="edgeLabels"><g class="edgeLabel"><g class="label" data-id="mmd-dark-4_L_cmd_manifest_0" transform="translate(0, 0)"><foreignObject width="0" height="0"><div xmlns="http://www.w3.org/1999/xhtml" class="labelBkg" style="display: table-cell; white-space: nowrap; line-height: 1.5; max-width: 200px; text-align: center;"><span class="edgeLabel"></span></div></foreignObject></g></g><g class="edgeLabel"><g class="label" data-id="mmd-dark-4_L_manifest_resolve_0" transform="translate(0, 0)"><foreignObject width="0" height="0"><div xmlns="http://www.w3.org/1999/xhtml" class="labelBkg" style="display: table-cell; white-space: nowrap; line-height: 1.5; max-width: 200px; text-align: center;"><span class="edgeLabel"></span></div></foreignObject></g></g><g class="edgeLabel"><g class="label" data-id="mmd-dark-4_L_resolve_scaffold_0" transform="translate(0, 0)"><foreignObject width="0" height="0"><div xmlns="http://www.w3.org/1999/xhtml" class="labelBkg" style="display: table-cell; white-space: nowrap; line-height: 1.5; max-width: 200px; text-align: center;"><span class="edgeLabel"></span></div></foreignObject></g></g><g class="edgeLabel"><g class="label" data-id="mmd-dark-4_L_labels_dev_0" transform="translate(0, 0)"><foreignObject width="0" height="0"><div xmlns="http://www.w3.org/1999/xhtml" class="labelBkg" style="display: table-cell; white-space: nowrap; line-height: 1.5; max-width: 200px; text-align: center;"><span class="edgeLabel"></span></div></foreignObject></g></g><g class="edgeLabel"><g class="label" data-id="mmd-dark-4_L_dev_live_0" transform="translate(0, 0)"><foreignObject width="0" height="0"><div xmlns="http://www.w3.org/1999/xhtml" class="labelBkg" style="display: table-cell; white-space: nowrap; line-height: 1.5; max-width: 200px; text-align: center;"><span class="edgeLabel"></span></div></foreignObject></g></g><g class="edgeLabel"><g class="label" data-id="mmd-dark-4_L_scaffold_landed_0" transform="translate(0, 0)"><foreignObject width="0" height="0"><div xmlns="http://www.w3.org/1999/xhtml" class="labelBkg" style="display: table-cell; white-space: nowrap; line-height: 1.5; max-width: 200px; text-align: center;"><span class="edgeLabel"></span></div></foreignObject></g></g><g class="edgeLabel"><g class="label" data-id="mmd-dark-4_L_landed_labels_0" transform="translate(0, 0)"><foreignObject width="0" height="0"><div xmlns="http://www.w3.org/1999/xhtml" class="labelBkg" style="display: table-cell; white-space: nowrap; line-height: 1.5; max-width: 200px; text-align: center;"><span class="edgeLabel"></span></div></foreignObject></g></g></g><g class="nodes"><g class="root" transform="translate(0, 599.25)"><g class="clusters"><g class="cluster" id="mmd-dark-4-landed" data-look="classic"><rect style="" x="8" y="8" width="1001.484375" height="168"/><g class="cluster-label" transform="translate(466.40625, 8)"><foreignObject width="84.671875" height="22.5"><div xmlns="http://www.w3.org/1999/xhtml" style="display: table-cell; white-space: nowrap; line-height: 1.5;"><span class="nodeLabel"><p><b>files landed</b></p></span></div></foreignObject></g></g></g><g class="edgePaths"><path d="M187.2,92L193.45,92C199.7,92,212.2,92,224.7,92C237.2,92,249.7,92,255.95,92L262.2,92" id="mmd-dark-4-L_f1_f2_0" class="edge-thickness-invisible edge-pattern-solid" style=";" data-edge="true" data-et="edge" data-id="mmd-dark-4_L_f1_f2_0" data-points="W3sieCI6MTg3LjIwMzEyNSwieSI6OTJ9LHsieCI6MjI0LjcwMzEyNSwieSI6OTJ9LHsieCI6MjYyLjIwMzEyNSwieSI6OTJ9XQ==" data-look="classic"/><path d="M440.59,92L446.84,92C453.09,92,465.59,92,478.09,92C490.59,92,503.09,92,509.34,92L515.59,92" id="mmd-dark-4-L_f2_f3_0" class="edge-thickness-invisible edge-pattern-solid" style=";" data-edge="true" data-et="edge" data-id="mmd-dark-4_L_f2_f3_0" data-points="W3sieCI6NDQwLjU5Mzc1LCJ5Ijo5Mn0seyJ4Ijo0NzguMDkzNzUsInkiOjkyfSx7IngiOjUxNS41OTM3NSwieSI6OTJ9XQ==" data-look="classic"/><path d="M735.48,92L741.73,92C747.98,92,760.48,92,772.98,92C785.48,92,797.98,92,804.23,92L810.48,92" id="mmd-dark-4-L_f3_f4_0" class="edge-thickness-invisible edge-pattern-solid" style=";" data-edge="true" data-et="edge" data-id="mmd-dark-4_L_f3_f4_0" data-points="W3sieCI6NzM1LjQ4NDM3NSwieSI6OTJ9LHsieCI6NzcyLjk4NDM3NSwieSI6OTJ9LHsieCI6ODEwLjQ4NDM3NSwieSI6OTJ9XQ==" data-look="classic"/></g><g class="edgeLabels"><g class="edgeLabel"><g class="label" data-id="mmd-dark-4_L_f1_f2_0" transform="translate(0, 0)"><foreignObject width="0" height="0"><div xmlns="http://www.w3.org/1999/xhtml" class="labelBkg" style="display: table-cell; white-space: nowrap; line-height: 1.5; max-width: 200px; text-align: center;"><span class="edgeLabel"></span></div></foreignObject></g></g><g class="edgeLabel"><g class="label" data-id="mmd-dark-4_L_f2_f3_0" transform="translate(0, 0)"><foreignObject width="0" height="0"><div xmlns="http://www.w3.org/1999/xhtml" class="labelBkg" style="display: table-cell; white-space: nowrap; line-height: 1.5; max-width: 200px; text-align: center;"><span class="edgeLabel"></span></div></foreignObject></g></g><g class="edgeLabel"><g class="label" data-id="mmd-dark-4_L_f3_f4_0" transform="translate(0, 0)"><foreignObject width="0" height="0"><div xmlns="http://www.w3.org/1999/xhtml" class="labelBkg" style="display: table-cell; white-space: nowrap; line-height: 1.5; max-width: 200px; text-align: center;"><span class="edgeLabel"></span></div></foreignObject></g></g></g><g class="nodes"><g class="node default file" id="mmd-dark-4-flowchart-f1-4" data-look="classic" transform="translate(116.3515625, 92)"><rect class="basic label-container" style="fill:#fef9c3 !important;stroke:#ca8a04 !important" x="-70.8515625" y="-49" width="141.703125" height="98"/><g class="label" style="color:#422006 !important" transform="translate(-40.8515625, -34)"><rect/><foreignObject width="81.703125" height="68"><div style="color: rgb(66, 32, 6) !important; display: table-cell; white-space: nowrap; line-height: 1.5; max-width: 200px; text-align: center;" xmlns="http://www.w3.org/1999/xhtml"><span style="color:#422006 !important" class="nodeLabel"><p>apps/site/**<br /><small>app source<br />+ health route</small></p></span></div></foreignObject></g></g><g class="node default file" id="mmd-dark-4-flowchart-f2-5" data-look="classic" transform="translate(351.3984375, 92)"><rect class="basic label-container" style="fill:#fef9c3 !important;stroke:#ca8a04 !important" x="-89.1953125" y="-49" width="178.390625" height="98"/><g class="label" style="color:#422006 !important" transform="translate(-59.1953125, -34)"><rect/><foreignObject width="118.390625" height="68"><div style="color: rgb(66, 32, 6) !important; display: table-cell; white-space: nowrap; line-height: 1.5; max-width: 200px; text-align: center;" xmlns="http://www.w3.org/1999/xhtml"><span style="color:#422006 !important" class="nodeLabel"><p>docker/compose/<br /><small>site.yml<br />site.dev.yml</small></p></span></div></foreignObject></g></g><g class="node default file" id="mmd-dark-4-flowchart-f3-6" data-look="classic" transform="translate(625.5390625, 92)"><rect class="basic label-container" style="fill:#fef9c3 !important;stroke:#ca8a04 !important" x="-109.9453125" y="-49" width="219.890625" height="98"/><g class="label" style="color:#422006 !important" transform="translate(-79.9453125, -34)"><rect/><foreignObject width="159.890625" height="68"><div style="color: rgb(66, 32, 6) !important; display: table-cell; white-space: nowrap; line-height: 1.5; max-width: 200px; text-align: center;" xmlns="http://www.w3.org/1999/xhtml"><span style="color:#422006 !important" class="nodeLabel"><p>docker/dockerfiles/site/<br /><small>app<br />app.prod</small></p></span></div></foreignObject></g></g><g class="node default file" id="mmd-dark-4-flowchart-f4-7" data-look="classic" transform="translate(891.234375, 92)"><rect class="basic label-container" style="fill:#fef9c3 !important;stroke:#ca8a04 !important" x="-80.75" y="-37.625" width="161.5" height="75.25"/><g class="label" style="color:#422006 !important" transform="translate(-50.75, -22.625)"><rect/><foreignObject width="101.5" height="45.25"><div style="color: rgb(66, 32, 6) !important; display: table-cell; white-space: nowrap; line-height: 1.5; max-width: 200px; text-align: center;" xmlns="http://www.w3.org/1999/xhtml"><span style="color:#422006 !important" class="nodeLabel"><p>docker/.config/<br /><small>.env.site</small></p></span></div></foreignObject></g></g></g></g><g class="node default cmdNode" id="mmd-dark-4-flowchart-cmd-0" data-look="classic" transform="translate(508.7421875, 56.75)"><rect class="basic label-container" style="fill:#e0e7ff !important;stroke:#4f46e5 !important;stroke-width:1.5px !important" x="-130" y="-48.75" width="260" height="97.5"/><g class="label" style="color:#1e1b4b !important" transform="translate(-100, -33.75)"><rect/><foreignObject width="200" height="67.5"><div style="color: rgb(30, 27, 75) !important; display: table; white-space: break-spaces; line-height: 1.5; max-width: 200px; text-align: center; width: 200px;" xmlns="http://www.w3.org/1999/xhtml"><span style="color:#1e1b4b !important" class="nodeLabel"><p><b>mx add site --recipe astro --domain mechcrate.localhost</b></p></span></div></foreignObject></g></g><g class="node default file" id="mmd-dark-4-flowchart-manifest-1" data-look="classic" transform="translate(508.7421875, 197)"><polygon points="-41.5,0 276.359375,0 317.859375,-83 0,-83" class="label-container" transform="translate(-138.1796875,41.5)" style="fill:#fef9c3 !important;stroke:#ca8a04 !important"/><g class="label" style="color:#422006 !important" transform="translate(-130.6796875, -34)"><rect/><foreignObject width="261.359375" height="68"><div style="color: rgb(66, 32, 6) !important; display: table; white-space: break-spaces; line-height: 1.5; max-width: 200px; text-align: center; width: 200px;" xmlns="http://www.w3.org/1999/xhtml"><span style="color:#422006 !important" class="nodeLabel"><p><b>templates/recipes/astro/recipe.json</b><br /><small>options · placeholders · init_app · directories · templates</small></p></span></div></foreignObject></g></g><g class="node default step" id="mmd-dark-4-flowchart-resolve-2" data-look="classic" transform="translate(508.7421875, 348.875)"><rect class="basic label-container" style="fill:#f8fafc !important;stroke:#64748b !important" x="-130" y="-60.375" width="260" height="120.75"/><g class="label" style="color:#0f172a !important" transform="translate(-100, -45.375)"><rect/><foreignObject width="200" height="90.75"><div style="color: rgb(15, 23, 42) !important; display: table; white-space: break-spaces; line-height: 1.5; max-width: 200px; text-align: center; width: 200px;" xmlns="http://www.w3.org/1999/xhtml"><span style="color:#0f172a !important" class="nodeLabel"><p><b>resolve + expand</b><br /><small>flags beat manifest defaults<br />SERVICE_NAME=site · DOMAIN=mechcrate.localhost</small></p></span></div></foreignObject></g></g><g class="node default step" id="mmd-dark-4-flowchart-scaffold-3" data-look="classic" transform="translate(508.7421875, 508.25)"><rect class="basic label-container" style="fill:#f8fafc !important;stroke:#64748b !important" x="-130" y="-49" width="260" height="98"/><g class="label" style="color:#0f172a !important" transform="translate(-100, -34)"><rect/><foreignObject width="200" height="68"><div style="color: rgb(15, 23, 42) !important; display: table; white-space: break-spaces; line-height: 1.5; max-width: 200px; text-align: center; width: 200px;" xmlns="http://www.w3.org/1999/xhtml"><span style="color:#0f172a !important" class="nodeLabel"><p><b>scaffold</b><br /><small>init_app (skip_if_exists) · create declared directories</small></p></span></div></foreignObject></g></g><g class="node default done" id="mmd-dark-4-flowchart-labels-12" data-look="classic" transform="translate(508.7421875, 885.625)"><rect class="basic label-container" style="fill:#dcfce7 !important;stroke:#16a34a !important" x="-130" y="-60.375" width="260" height="120.75"/><g class="label" style="color:#14532d !important" transform="translate(-100, -45.375)"><rect/><foreignObject width="200" height="90.75"><div style="color: rgb(20, 83, 45) !important; display: table; white-space: break-spaces; line-height: 1.5; max-width: 200px; text-align: center; width: 200px;" xmlns="http://www.w3.org/1999/xhtml"><span style="color:#14532d !important" class="nodeLabel"><p><b>router labels written</b><br /><small>traefik.enable · Host(mechcrate.localhost) → 4321 · devmesh-traefik</small></p></span></div></foreignObject></g></g><g class="node default cmdNode" id="mmd-dark-4-flowchart-dev-13" data-look="classic" transform="translate(508.7421875, 1033.625)"><rect class="basic label-container" style="fill:#e0e7ff !important;stroke:#4f46e5 !important;stroke-width:1.5px !important" x="-109.1875" y="-37.625" width="218.375" height="75.25"/><g class="label" style="color:#1e1b4b !important" transform="translate(-79.1875, -22.625)"><rect/><foreignObject width="158.375" height="45.25"><div style="color: rgb(30, 27, 75) !important; display: table-cell; white-space: nowrap; line-height: 1.5; max-width: 200px; text-align: center;" xmlns="http://www.w3.org/1999/xhtml"><span style="color:#1e1b4b !important" class="nodeLabel"><p><b>make dev s=site</b><br /><small>baseline + dev override, up</small></p></span></div></foreignObject></g></g><g class="node default done" id="mmd-dark-4-flowchart-live-14" data-look="classic" transform="translate(508.7421875, 1140)"><g class="basic label-container outer-path"><path d="M-91.3 -18.75 C-21.57 -18.75, 48.16 -18.75, 91.3 -18.75 C91.3 -18.75, 91.3 -18.75, 91.3 -18.75 C91.74 -18.74, 92.17 -18.72, 92.51 -18.71 C92.96 -18.67, 93.41 -18.62, 93.7 -18.6 C94.17 -18.52, 94.63 -18.45, 94.89 -18.4 C95.22 -18.33, 95.55 -18.25, 96.06 -18.14 C96.41 -18.03, 96.75 -17.93, 97.21 -17.79 C97.58 -17.66, 97.95 -17.52, 98.34 -17.38 C98.73 -17.21, 99.12 -17.03, 99.44 -16.89 C99.74 -16.73, 100.05 -16.58, 100.51 -16.34 C100.86 -16.12, 101.21 -15.91, 101.53 -15.71 C101.77 -15.55, 102.01 -15.38, 102.52 -15.03 C102.72 -14.87, 102.92 -14.71, 103.46 -14.28 C103.64 -14.12, 103.82 -13.95, 104.35 -13.47 C104.68 -13.13, 105.01 -12.79, 105.18 -12.61 C105.41 -12.34, 105.64 -12.07, 105.96 -11.69 C106.22 -11.35, 106.47 -11.02, 106.68 -10.73 C106.87 -10.45, 107.05 -10.17, 107.34 -9.72 C107.46 -9.51, 107.58 -9.29, 107.93 -8.67 C108.07 -8.39, 108.2 -8.1, 108.45 -7.59 C108.58 -7.27, 108.71 -6.95, 108.9 -6.48 C108.98 -6.22, 109.07 -5.97, 109.28 -5.33 C109.38 -4.94, 109.49 -4.54, 109.58 -4.17 C109.67 -3.74, 109.75 -3.31, 109.81 -2.99 C109.85 -2.74, 109.88 -2.49, 109.97 -1.8 C109.99 -1.49, 110.01 -1.17, 110.05 -0.6 C110.05 -0.22, 110.05 0.16, 110.05 0.6 C110.02 0.93, 110 1.26, 109.97 1.8 C109.93 2.11, 109.89 2.42, 109.81 2.99 C109.73 3.45, 109.64 3.9, 109.58 4.17 C109.48 4.57, 109.38 4.97, 109.28 5.33 C109.19 5.59, 109.11 5.85, 108.9 6.48 C108.78 6.77, 108.66 7.06, 108.45 7.59 C108.3 7.91, 108.14 8.23, 107.93 8.67 C107.7 9.07, 107.48 9.47, 107.34 9.72 C107.08 10.11, 106.82 10.51, 106.68 10.73 C106.51 10.96, 106.33 11.2, 105.96 11.69 C105.79 11.9, 105.61 12.11, 105.18 12.61 C105.01 12.79, 104.83 12.97, 104.35 13.47 C104.02 13.77, 103.69 14.07, 103.46 14.28 C103.12 14.54, 102.79 14.81, 102.52 15.03 C102.2 15.25, 101.89 15.47, 101.53 15.71 C101.28 15.87, 101.03 16.02, 100.51 16.34 C100.08 16.56, 99.66 16.78, 99.44 16.89 C99.13 17.03, 98.82 17.17, 98.34 17.38 C98.01 17.5, 97.69 17.62, 97.21 17.79 C96.97 17.87, 96.72 17.94, 96.06 18.14 C95.64 18.23, 95.23 18.33, 94.89 18.4 C94.47 18.47, 94.05 18.54, 93.7 18.6 C93.32 18.63, 92.95 18.67, 92.51 18.71 C92.16 18.72, 91.82 18.73, 91.3 18.75 C91.3 18.75, 91.3 18.75, 91.3 18.75 C32.05 18.75, -27.21 18.75, -91.3 18.75 C-91.75 18.74, -92.19 18.72, -92.51 18.71 C-92.97 18.67, -93.44 18.62, -93.7 18.6 C-93.99 18.55, -94.28 18.5, -94.89 18.4 C-95.23 18.33, -95.56 18.25, -96.06 18.14 C-96.39 18.04, -96.73 17.94, -97.21 17.79 C-97.44 17.71, -97.68 17.62, -98.34 17.38 C-98.64 17.25, -98.93 17.12, -99.44 16.89 C-99.86 16.67, -100.29 16.45, -100.51 16.34 C-100.82 16.15, -101.14 15.95, -101.53 15.71 C-101.76 15.55, -102 15.39, -102.52 15.03 C-102.72 14.87, -102.92 14.71, -103.46 14.28 C-103.64 14.11, -103.82 13.95, -104.35 13.47 C-104.55 13.26, -104.75 13.05, -105.18 12.61 C-105.4 12.35, -105.62 12.09, -105.96 11.69 C-106.19 11.39, -106.41 11.1, -106.68 10.73 C-106.88 10.42, -107.08 10.12, -107.34 9.72 C-107.54 9.36, -107.75 8.99, -107.93 8.67 C-108.1 8.32, -108.27 7.96, -108.45 7.59 C-108.62 7.18, -108.78 6.76, -108.9 6.48 C-109.03 6.09, -109.16 5.71, -109.28 5.33 C-109.38 4.96, -109.48 4.59, -109.58 4.17 C-109.66 3.78, -109.74 3.38, -109.81 2.99 C-109.85 2.71, -109.89 2.43, -109.97 1.8 C-110 1.37, -110.02 0.93, -110.05 0.6 C-110.05 0.3, -110.05 0, -110.05 -0.6 C-110.01 -1.07, -109.98 -1.54, -109.97 -1.8 C-109.91 -2.27, -109.85 -2.74, -109.81 -2.99 C-109.73 -3.45, -109.64 -3.91, -109.58 -4.17 C-109.5 -4.49, -109.42 -4.81, -109.28 -5.33 C-109.14 -5.75, -109.01 -6.16, -108.9 -6.48 C-108.76 -6.82, -108.62 -7.16, -108.45 -7.59 C-108.29 -7.92, -108.13 -8.24, -107.93 -8.67 C-107.71 -9.05, -107.5 -9.43, -107.34 -9.72 C-107.2 -9.94, -107.05 -10.16, -106.68 -10.73 C-106.49 -10.99, -106.29 -11.25, -105.96 -11.69 C-105.79 -11.9, -105.61 -12.11, -105.18 -12.61 C-104.93 -12.86, -104.68 -13.12, -104.35 -13.47 C-104.07 -13.72, -103.79 -13.98, -103.46 -14.28 C-103.24 -14.46, -103.01 -14.63, -102.52 -15.03 C-102.21 -15.24, -101.91 -15.45, -101.53 -15.71 C-101.32 -15.84, -101.11 -15.97, -100.51 -16.34 C-100.26 -16.47, -100.02 -16.59, -99.44 -16.89 C-99.1 -17.04, -98.76 -17.19, -98.34 -17.38 C-98.11 -17.46, -97.88 -17.55, -97.21 -17.79 C-96.91 -17.89, -96.6 -17.98, -96.06 -18.14 C-95.81 -18.19, -95.55 -18.25, -94.89 -18.4 C-94.6 -18.45, -94.31 -18.5, -93.7 -18.6 C-93.31 -18.63, -92.93 -18.67, -92.51 -18.71 C-92.12 -18.72, -91.73 -18.74, -91.3 -18.75 C-91.3 -18.75, -91.3 -18.75, -91.3 -18.75" stroke="none" stroke-width="0" fill="#dcfce7" style="fill:#dcfce7 !important;stroke:#16a34a !important"/><path d="M-91.3 -18.75 C-26.48 -18.75, 38.35 -18.75, 91.3 -18.75 M-91.3 -18.75 C-49.38 -18.75, -7.46 -18.75, 91.3 -18.75 M91.3 -18.75 C91.3 -18.75, 91.3 -18.75, 91.3 -18.75 M91.3 -18.75 C91.3 -18.75, 91.3 -18.75, 91.3 -18.75 M91.3 -18.75 C91.74 -18.74, 92.18 -18.72, 92.51 -18.71 M91.3 -18.75 C91.57 -18.74, 91.84 -18.73, 92.51 -18.71 M92.51 -18.71 C92.91 -18.67, 93.31 -18.63, 93.7 -18.6 M92.51 -18.71 C92.85 -18.68, 93.2 -18.64, 93.7 -18.6 M93.7 -18.6 C94.07 -18.54, 94.43 -18.48, 94.89 -18.4 M93.7 -18.6 C93.99 -18.55, 94.28 -18.5, 94.89 -18.4 M94.89 -18.4 C95.23 -18.33, 95.57 -18.25, 96.06 -18.14 M94.89 -18.4 C95.33 -18.3, 95.78 -18.2, 96.06 -18.14 M96.06 -18.14 C96.49 -18.01, 96.93 -17.88, 97.21 -17.79 M96.06 -18.14 C96.42 -18.03, 96.77 -17.93, 97.21 -17.79 M97.21 -17.79 C97.55 -17.67, 97.89 -17.55, 98.34 -17.38 M97.21 -17.79 C97.47 -17.7, 97.73 -17.61, 98.34 -17.38 M98.34 -17.38 C98.71 -17.22, 99.08 -17.05, 99.44 -16.89 M98.34 -17.38 C98.59 -17.27, 98.84 -17.16, 99.44 -16.89 M99.44 -16.89 C99.83 -16.69, 100.22 -16.48, 100.51 -16.34 M99.44 -16.89 C99.81 -16.7, 100.18 -16.51, 100.51 -16.34 M100.51 -16.34 C100.86 -16.12, 101.21 -15.91, 101.53 -15.71 M100.51 -16.34 C100.9 -16.1, 101.29 -15.86, 101.53 -15.71 M101.53 -15.71 C101.82 -15.52, 102.1 -15.32, 102.52 -15.03 M101.53 -15.71 C101.85 -15.5, 102.16 -15.28, 102.52 -15.03 M102.52 -15.03 C102.77 -14.82, 103.03 -14.62, 103.46 -14.28 M102.52 -15.03 C102.81 -14.8, 103.1 -14.57, 103.46 -14.28 M103.46 -14.28 C103.64 -14.11, 103.82 -13.94, 104.35 -13.47 M103.46 -14.28 C103.73 -14.03, 104 -13.78, 104.35 -13.47 M104.35 -13.47 C104.58 -13.23, 104.82 -12.98, 105.18 -12.61 M104.35 -13.47 C104.55 -13.27, 104.74 -13.06, 105.18 -12.61 M105.18 -12.61 C105.43 -12.31, 105.68 -12.02, 105.96 -11.69 M105.18 -12.61 C105.38 -12.38, 105.58 -12.15, 105.96 -11.69 M105.96 -11.69 C106.21 -11.36, 106.46 -11.03, 106.68 -10.73 M105.96 -11.69 C106.24 -11.32, 106.52 -10.95, 106.68 -10.73 M106.68 -10.73 C106.92 -10.36, 107.16 -10, 107.34 -9.72 M106.68 -10.73 C106.94 -10.33, 107.2 -9.93, 107.34 -9.72 M107.34 -9.72 C107.55 -9.34, 107.77 -8.96, 107.93 -8.67 M107.34 -9.72 C107.46 -9.51, 107.58 -9.3, 107.93 -8.67 M107.93 -8.67 C108.08 -8.35, 108.24 -8.02, 108.45 -7.59 M107.93 -8.67 C108.1 -8.32, 108.27 -7.96, 108.45 -7.59 M108.45 -7.59 C108.59 -7.23, 108.74 -6.88, 108.9 -6.48 M108.45 -7.59 C108.55 -7.34, 108.66 -7.08, 108.9 -6.48 M108.9 -6.48 C109.05 -6.03, 109.2 -5.58, 109.28 -5.33 M108.9 -6.48 C109.04 -6.05, 109.18 -5.63, 109.28 -5.33 M109.28 -5.33 C109.39 -4.92, 109.49 -4.51, 109.58 -4.17 M109.28 -5.33 C109.36 -5.01, 109.45 -4.7, 109.58 -4.17 M109.58 -4.17 C109.65 -3.83, 109.72 -3.48, 109.81 -2.99 M109.58 -4.17 C109.67 -3.75, 109.75 -3.33, 109.81 -2.99 M109.81 -2.99 C109.88 -2.52, 109.94 -2.05, 109.97 -1.8 M109.81 -2.99 C109.86 -2.65, 109.9 -2.31, 109.97 -1.8 M109.97 -1.8 C109.99 -1.42, 110.02 -1.04, 110.05 -0.6 M109.97 -1.8 C109.98 -1.55, 110 -1.3, 110.05 -0.6 M110.05 -0.6 C110.05 -0.34, 110.05 -0.08, 110.05 0.6 M110.05 -0.6 C110.05 -0.26, 110.05 0.08, 110.05 0.6 M110.05 0.6 C110.03 0.91, 110.01 1.21, 109.97 1.8 M110.05 0.6 C110.02 0.98, 110 1.36, 109.97 1.8 M109.97 1.8 C109.93 2.11, 109.89 2.42, 109.81 2.99 M109.97 1.8 C109.93 2.08, 109.9 2.36, 109.81 2.99 M109.81 2.99 C109.77 3.24, 109.72 3.49, 109.58 4.17 M109.81 2.99 C109.76 3.28, 109.7 3.56, 109.58 4.17 M109.58 4.17 C109.51 4.45, 109.44 4.72, 109.28 5.33 M109.58 4.17 C109.48 4.55, 109.38 4.93, 109.28 5.33 M109.28 5.33 C109.15 5.73, 109.01 6.13, 108.9 6.48 M109.28 5.33 C109.14 5.77, 108.99 6.2, 108.9 6.48 M108.9 6.48 C108.74 6.87, 108.58 7.27, 108.45 7.59 M108.9 6.48 C108.79 6.76, 108.67 7.05, 108.45 7.59 M108.45 7.59 C108.27 7.96, 108.09 8.33, 107.93 8.67 M108.45 7.59 C108.31 7.87, 108.18 8.15, 107.93 8.67 M107.93 8.67 C107.72 9.05, 107.51 9.42, 107.34 9.72 M107.93 8.67 C107.76 8.98, 107.58 9.29, 107.34 9.72 M107.34 9.72 C107.16 9.99, 106.99 10.26, 106.68 10.73 M107.34 9.72 C107.18 9.96, 107.03 10.19, 106.68 10.73 M106.68 10.73 C106.51 10.97, 106.33 11.2, 105.96 11.69 M106.68 10.73 C106.43 11.06, 106.18 11.4, 105.96 11.69 M105.96 11.69 C105.68 12.02, 105.4 12.35, 105.18 12.61 M105.96 11.69 C105.79 11.9, 105.61 12.1, 105.18 12.61 M105.18 12.61 C104.88 12.92, 104.57 13.24, 104.35 13.47 M105.18 12.61 C104.89 12.91, 104.6 13.21, 104.35 13.47 M104.35 13.47 C104.09 13.7, 103.84 13.93, 103.46 14.28 M104.35 13.47 C104.15 13.65, 103.94 13.84, 103.46 14.28 M103.46 14.28 C103.09 14.57, 102.72 14.86, 102.52 15.03 M103.46 14.28 C103.14 14.53, 102.82 14.79, 102.52 15.03 M102.52 15.03 C102.15 15.28, 101.79 15.54, 101.53 15.71 M102.52 15.03 C102.31 15.17, 102.09 15.32, 101.53 15.71 M101.53 15.71 C101.32 15.85, 101.1 15.98, 100.51 16.34 M101.53 15.71 C101.19 15.92, 100.84 16.14, 100.51 16.34 M100.51 16.34 C100.29 16.45, 100.07 16.56, 99.44 16.89 M100.51 16.34 C100.13 16.53, 99.76 16.73, 99.44 16.89 M99.44 16.89 C99.08 17.05, 98.71 17.22, 98.34 17.38 M99.44 16.89 C99.15 17.02, 98.86 17.15, 98.34 17.38 M98.34 17.38 C98.09 17.47, 97.84 17.56, 97.21 17.79 M98.34 17.38 C97.99 17.51, 97.63 17.64, 97.21 17.79 M97.21 17.79 C96.97 17.87, 96.73 17.94, 96.06 18.14 M97.21 17.79 C96.82 17.91, 96.42 18.03, 96.06 18.14 M96.06 18.14 C95.63 18.23, 95.21 18.33, 94.89 18.4 M96.06 18.14 C95.75 18.21, 95.44 18.28, 94.89 18.4 M94.89 18.4 C94.61 18.45, 94.33 18.49, 93.7 18.6 M94.89 18.4 C94.57 18.46, 94.25 18.51, 93.7 18.6 M93.7 18.6 C93.29 18.64, 92.89 18.67, 92.51 18.71 M93.7 18.6 C93.26 18.64, 92.82 18.68, 92.51 18.71 M92.51 18.71 C92.05 18.73, 91.6 18.74, 91.3 18.75 M92.51 18.71 C92.11 18.72, 91.71 18.74, 91.3 18.75 M91.3 18.75 C91.3 18.75, 91.3 18.75, 91.3 18.75 M91.3 18.75 C91.3 18.75, 91.3 18.75, 91.3 18.75 M91.3 18.75 C24.9 18.75, -41.51 18.75, -91.3 18.75 M91.3 18.75 C25.2 18.75, -40.9 18.75, -91.3 18.75 M-91.3 18.75 C-91.62 18.74, -91.94 18.73, -92.51 18.71 M-91.3 18.75 C-91.61 18.74, -91.91 18.73, -92.51 18.71 M-92.51 18.71 C-92.77 18.69, -93.03 18.66, -93.7 18.6 M-92.51 18.71 C-92.96 18.67, -93.41 18.62, -93.7 18.6 M-93.7 18.6 C-94.04 18.54, -94.37 18.49, -94.89 18.4 M-93.7 18.6 C-93.95 18.56, -94.19 18.52, -94.89 18.4 M-94.89 18.4 C-95.23 18.33, -95.57 18.25, -96.06 18.14 M-94.89 18.4 C-95.33 18.3, -95.77 18.2, -96.06 18.14 M-96.06 18.14 C-96.31 18.06, -96.55 17.99, -97.21 17.79 M-96.06 18.14 C-96.41 18.03, -96.76 17.93, -97.21 17.79 M-97.21 17.79 C-97.49 17.69, -97.76 17.59, -98.34 17.38 M-97.21 17.79 C-97.59 17.66, -97.96 17.52, -98.34 17.38 M-98.34 17.38 C-98.58 17.27, -98.83 17.16, -99.44 16.89 M-98.34 17.38 C-98.77 17.19, -99.2 17, -99.44 16.89 M-99.44 16.89 C-99.7 16.76, -99.95 16.63, -100.51 16.34 M-99.44 16.89 C-99.7 16.76, -99.97 16.62, -100.51 16.34 M-100.51 16.34 C-100.74 16.2, -100.97 16.06, -101.53 15.71 M-100.51 16.34 C-100.72 16.21, -100.94 16.07, -101.53 15.71 M-101.53 15.71 C-101.92 15.44, -102.31 15.17, -102.52 15.03 M-101.53 15.71 C-101.77 15.55, -102 15.39, -102.52 15.03 M-102.52 15.03 C-102.75 14.84, -102.98 14.66, -103.46 14.28 M-102.52 15.03 C-102.81 14.79, -103.1 14.56, -103.46 14.28 M-103.46 14.28 C-103.76 14.01, -104.06 13.74, -104.35 13.47 M-103.46 14.28 C-103.72 14.04, -103.99 13.8, -104.35 13.47 M-104.35 13.47 C-104.62 13.19, -104.9 12.9, -105.18 12.61 M-104.35 13.47 C-104.53 13.28, -104.72 13.09, -105.18 12.61 M-105.18 12.61 C-105.44 12.31, -105.69 12.01, -105.96 11.69 M-105.18 12.61 C-105.46 12.28, -105.74 11.95, -105.96 11.69 M-105.96 11.69 C-106.17 11.41, -106.38 11.13, -106.68 10.73 M-105.96 11.69 C-106.21 11.36, -106.46 11.02, -106.68 10.73 M-106.68 10.73 C-106.83 10.5, -106.98 10.27, -107.34 9.72 M-106.68 10.73 C-106.93 10.34, -107.18 9.96, -107.34 9.72 M-107.34 9.72 C-107.49 9.46, -107.63 9.2, -107.93 8.67 M-107.34 9.72 C-107.51 9.41, -107.68 9.11, -107.93 8.67 M-107.93 8.67 C-108.13 8.25, -108.34 7.83, -108.45 7.59 M-107.93 8.67 C-108.08 8.36, -108.23 8.04, -108.45 7.59 M-108.45 7.59 C-108.58 7.28, -108.7 6.97, -108.9 6.48 M-108.45 7.59 C-108.6 7.23, -108.74 6.87, -108.9 6.48 M-108.9 6.48 C-109.05 6.02, -109.2 5.56, -109.28 5.33 M-108.9 6.48 C-108.98 6.23, -109.06 5.98, -109.28 5.33 M-109.28 5.33 C-109.35 5.07, -109.42 4.81, -109.58 4.17 M-109.28 5.33 C-109.39 4.9, -109.51 4.47, -109.58 4.17 M-109.58 4.17 C-109.67 3.74, -109.75 3.31, -109.81 2.99 M-109.58 4.17 C-109.64 3.89, -109.69 3.62, -109.81 2.99 M-109.81 2.99 C-109.86 2.66, -109.9 2.33, -109.97 1.8 M-109.81 2.99 C-109.85 2.71, -109.89 2.42, -109.97 1.8 M-109.97 1.8 C-109.99 1.52, -110 1.24, -110.05 0.6 M-109.97 1.8 C-109.98 1.56, -110 1.32, -110.05 0.6 M-110.05 0.6 C-110.05 0.19, -110.05 -0.22, -110.05 -0.6 M-110.05 0.6 C-110.05 0.34, -110.05 0.07, -110.05 -0.6 M-110.05 -0.6 C-110.02 -0.96, -110 -1.31, -109.97 -1.8 M-110.05 -0.6 C-110.03 -0.88, -110.01 -1.16, -109.97 -1.8 M-109.97 -1.8 C-109.92 -2.16, -109.88 -2.52, -109.81 -2.99 M-109.97 -1.8 C-109.92 -2.15, -109.88 -2.51, -109.81 -2.99 M-109.81 -2.99 C-109.73 -3.43, -109.65 -3.86, -109.58 -4.17 M-109.81 -2.99 C-109.73 -3.45, -109.64 -3.9, -109.58 -4.17 M-109.58 -4.17 C-109.52 -4.42, -109.45 -4.67, -109.28 -5.33 M-109.58 -4.17 C-109.52 -4.43, -109.45 -4.69, -109.28 -5.33 M-109.28 -5.33 C-109.17 -5.66, -109.06 -5.99, -108.9 -6.48 M-109.28 -5.33 C-109.18 -5.64, -109.07 -5.95, -108.9 -6.48 M-108.9 -6.48 C-108.79 -6.75, -108.68 -7.02, -108.45 -7.59 M-108.9 -6.48 C-108.73 -6.91, -108.55 -7.34, -108.45 -7.59 M-108.45 -7.59 C-108.29 -7.93, -108.12 -8.27, -107.93 -8.67 M-108.45 -7.59 C-108.28 -7.94, -108.11 -8.3, -107.93 -8.67 M-107.93 -8.67 C-107.7 -9.09, -107.46 -9.5, -107.34 -9.72 M-107.93 -8.67 C-107.72 -9.04, -107.52 -9.41, -107.34 -9.72 M-107.34 -9.72 C-107.15 -10, -106.97 -10.28, -106.68 -10.73 M-107.34 -9.72 C-107.12 -10.05, -106.9 -10.39, -106.68 -10.73 M-106.68 -10.73 C-106.44 -11.05, -106.21 -11.37, -105.96 -11.69 M-106.68 -10.73 C-106.42 -11.08, -106.16 -11.43, -105.96 -11.69 M-105.96 -11.69 C-105.72 -11.98, -105.47 -12.27, -105.18 -12.61 M-105.96 -11.69 C-105.68 -12.02, -105.4 -12.36, -105.18 -12.61 M-105.18 -12.61 C-104.99 -12.81, -104.8 -13.01, -104.35 -13.47 M-105.18 -12.61 C-104.94 -12.86, -104.7 -13.11, -104.35 -13.47 M-104.35 -13.47 C-104.02 -13.77, -103.69 -14.06, -103.46 -14.28 M-104.35 -13.47 C-104.15 -13.65, -103.96 -13.82, -103.46 -14.28 M-103.46 -14.28 C-103.11 -14.55, -102.77 -14.83, -102.52 -15.03 M-103.46 -14.28 C-103.13 -14.54, -102.79 -14.81, -102.52 -15.03 M-102.52 -15.03 C-102.19 -15.26, -101.85 -15.49, -101.53 -15.71 M-102.52 -15.03 C-102.19 -15.25, -101.87 -15.48, -101.53 -15.71 M-101.53 -15.71 C-101.31 -15.85, -101.08 -15.99, -100.51 -16.34 M-101.53 -15.71 C-101.13 -15.96, -100.73 -16.2, -100.51 -16.34 M-100.51 -16.34 C-100.28 -16.46, -100.05 -16.57, -99.44 -16.89 M-100.51 -16.34 C-100.26 -16.47, -100.01 -16.59, -99.44 -16.89 M-99.44 -16.89 C-99.18 -17.01, -98.92 -17.13, -98.34 -17.38 M-99.44 -16.89 C-99.04 -17.07, -98.63 -17.25, -98.34 -17.38 M-98.34 -17.38 C-98.08 -17.48, -97.81 -17.57, -97.21 -17.79 M-98.34 -17.38 C-98.07 -17.48, -97.8 -17.58, -97.21 -17.79 M-97.21 -17.79 C-96.86 -17.9, -96.51 -18, -96.06 -18.14 M-97.21 -17.79 C-96.92 -17.88, -96.63 -17.97, -96.06 -18.14 M-96.06 -18.14 C-95.72 -18.22, -95.37 -18.29, -94.89 -18.4 M-96.06 -18.14 C-95.6 -18.24, -95.14 -18.35, -94.89 -18.4 M-94.89 -18.4 C-94.58 -18.45, -94.27 -18.5, -93.7 -18.6 M-94.89 -18.4 C-94.52 -18.46, -94.15 -18.52, -93.7 -18.6 M-93.7 -18.6 C-93.36 -18.63, -93.03 -18.66, -92.51 -18.71 M-93.7 -18.6 C-93.37 -18.63, -93.03 -18.66, -92.51 -18.71 M-92.51 -18.71 C-92.19 -18.72, -91.87 -18.73, -91.3 -18.75 M-92.51 -18.71 C-92.17 -18.72, -91.84 -18.73, -91.3 -18.75 M-91.3 -18.75 C-91.3 -18.75, -91.3 -18.75, -91.3 -18.75 M-91.3 -18.75 C-91.3 -18.75, -91.3 -18.75, -91.3 -18.75" stroke="#16a34a" stroke-width="1.3" fill="none" stroke-dasharray="0 0" style="fill:#dcfce7 !important;stroke:#16a34a !important"/></g><g class="label" style="color:#14532d !important" transform="translate(-97.8671875, -11.25)"><rect/><foreignObject width="195.734375" height="22.5"><div style="color: rgb(20, 83, 45) !important; display: table-cell; white-space: nowrap; line-height: 1.5; max-width: 200px; text-align: center;" xmlns="http://www.w3.org/1999/xhtml"><span style="color:#14532d !important" class="nodeLabel"><p><b>http://mechcrate.localhost</b></p></span></div></foreignObject></g></g></g></g></g><defs><filter id="mmd-dark-4-drop-shadow" height="130%" width="130%"><feDropShadow dx="4" dy="4" stdDeviation="0" flood-opacity="0.06" flood-color="#000000"/></filter></defs><defs><filter id="mmd-dark-4-drop-shadow-small" height="150%" width="150%"><feDropShadow dx="2" dy="2" stdDeviation="0" flood-opacity="0.06" flood-color="#000000"/></filter></defs><linearGradient id="mmd-dark-4-gradient" gradientUnits="objectBoundingBox" x1="0%" y1="0%" x2="100%" y2="0%"><stop offset="0%" stop-color="#94a3b8" stop-opacity="1"/><stop offset="100%" stop-color="hsl(97.2413793103, 0%, 7.4509803922%)" stop-opacity="1"/></linearGradient></svg>